#Comment line ignore any data following # character 
#Hierarchical Translation and Rotation (.htr) file 
[Header]	
#Header keywords are followed by a single value 
FileType HTR		#Single word string
DataType HTRS		#Translation followed by rotation and scale data
FileVersion 1		#integer
NumSegments 84		#integer
NumFrames 2		#integer
DataFrameRate 30		#integer, data frame rate in this file
EulerRotationOrder ZYX
CalibrationUnits mm
RotationUnits Degrees
GlobalAxisofGravity Y
BoneLengthAxis Y
ScaleFactor 1.00
[SegmentNames&Hierarchy]
#CHILD	PARENT
MASTER GLOBAL
root MASTER
chest root
L_mid_tent01 root
R_mid_tent01 root
spine01 root
Bip01_Neck chest
L_humerus chest
R_humerus chest
weapon_bone chest
Bip01_Head Bip01_Neck
eye_left_bone Bip01_Head
eye_right_bone Bip01_Head
L_forearm L_humerus
L_front_hand L_forearm
L_weapon_bone L_forearm
L_front_hand01_01 L_front_hand
L_front_hand02_01 L_front_hand
L_front_hand03_01 L_front_hand
L_front_hand01_02 L_front_hand01_01
L_front_hand02_02 L_front_hand02_01
L_front_hand03_02 L_front_hand03_01
R_forearm R_humerus
R_front_hand R_forearm
R_weapon_bone R_forearm
R_front_hand01_01 R_front_hand
R_front_hand02_01 R_front_hand
R_front_hand03_01 R_front_hand
R_front_hand01_02 R_front_hand01_01
R_front_hand02_02 R_front_hand02_01
R_front_hand03_02 R_front_hand03_01
null_rope01_connect L_mid_tent01
Rope1_Seg01 null_rope01_connect
Rope1_Seg02 Rope1_Seg01
Rope1_Seg03 Rope1_Seg02
Rope1_Seg04 Rope1_Seg03
Rope1_Seg05 Rope1_Seg04
Rope1_Seg06 Rope1_Seg05
Rope1_Seg07 Rope1_Seg06
Rope1_Seg09 Rope1_Seg07
L_mid_hand01 Rope1_Seg09
L_mid_hand02 Rope1_Seg09
L_mid_hand03 Rope1_Seg09
null_rope02_connect R_mid_tent01
Rope2_Seg01 null_rope02_connect
Rope2_Seg02 Rope2_Seg01
Rope2_Seg03 Rope2_Seg02
Rope2_Seg04 Rope2_Seg03
Rope2_Seg05 Rope2_Seg04
Rope2_Seg06 Rope2_Seg05
Rope2_Seg07 Rope2_Seg06
Rope2_Seg09 Rope2_Seg07
R_mid_hand01 Rope2_Seg09
R_mid_hand02 Rope2_Seg09
R_mid_hand03 Rope2_Seg09
spine02 spine01
spine03 spine02
pelvis spine03
null_rope03_connect pelvis
null_rope04_connect pelvis
Rope3_Seg01 null_rope03_connect
Rope3_Seg02 Rope3_Seg01
Rope3_Seg03 Rope3_Seg02
Rope3_Seg04 Rope3_Seg03
Rope3_Seg05 Rope3_Seg04
Rope3_Seg06 Rope3_Seg05
Rope3_Seg07 Rope3_Seg06
Rope3_Seg08 Rope3_Seg07
Rope3_Seg09 Rope3_Seg08
R_rear_hand01 Rope3_Seg09
R_rear_hand02 Rope3_Seg09
R_rear_hand03 Rope3_Seg09
Rope4_Seg01 null_rope04_connect
Rope4_Seg02 Rope4_Seg01
Rope4_Seg03 Rope4_Seg02
Rope4_Seg04 Rope4_Seg03
Rope4_Seg05 Rope4_Seg04
Rope4_Seg06 Rope4_Seg05
Rope4_Seg07 Rope4_Seg06
Rope4_Seg08 Rope4_Seg07
Rope4_Seg09 Rope4_Seg08
L_rear_hand01 Rope4_Seg09
L_rear_hand02 Rope4_Seg09
L_rear_hand03 Rope4_Seg09
[BasePosition]
#SegmentName Tx, Ty, Tz, Rx, Ry, Rz, BoneLength
MASTER 0.000000 0.000000 0.000000 -90.000000 0.000000 0.000000 10.000000 
root 0.000000 0.000000 0.000000 0.000000 0.000000 0.000000 10.000000 
chest 0.000000 0.000000 0.000000 0.000000 0.000000 0.000000 10.000000 
L_mid_tent01 0.000000 0.000000 0.000000 0.000000 0.000000 0.000000 10.000000 
R_mid_tent01 0.000000 0.000000 0.000000 0.000000 0.000000 0.000000 10.000000 
spine01 0.000000 0.000000 0.000000 0.000000 0.000000 0.000000 10.000000 
Bip01_Neck 0.000000 0.000000 0.000000 0.000000 0.000000 0.000000 10.000000 
L_humerus 0.000000 0.000000 0.000000 0.000000 0.000000 0.000000 10.000000 
R_humerus 0.000000 0.000000 0.000000 0.000000 0.000000 0.000000 10.000000 
weapon_bone 0.000000 0.000000 0.000000 0.000000 0.000000 0.000000 10.000000 
Bip01_Head 0.000000 0.000000 0.000000 0.000000 0.000000 0.000000 10.000000 
eye_left_bone 0.000000 0.000000 0.000000 0.000000 0.000000 0.000000 10.000000 
eye_right_bone 0.000000 0.000000 0.000000 0.000000 0.000000 0.000000 10.000000 
L_forearm 0.000000 0.000000 0.000000 0.000000 0.000000 0.000000 10.000000 
L_front_hand 0.000000 0.000000 0.000000 0.000000 0.000000 0.000000 10.000000 
L_weapon_bone 0.000000 0.000000 0.000000 0.000000 0.000000 0.000000 10.000000 
L_front_hand01_01 0.000000 0.000000 0.000000 0.000000 0.000000 0.000000 10.000000 
L_front_hand02_01 0.000000 0.000000 0.000000 0.000000 0.000000 0.000000 10.000000 
L_front_hand03_01 0.000000 0.000000 0.000000 0.000000 0.000000 0.000000 10.000000 
L_front_hand01_02 0.000000 0.000000 0.000000 0.000000 0.000000 0.000000 10.000000 
L_front_hand02_02 0.000000 0.000000 0.000000 0.000000 0.000000 0.000000 10.000000 
L_front_hand03_02 0.000000 0.000000 0.000000 0.000000 0.000000 0.000000 10.000000 
R_forearm 0.000000 0.000000 0.000000 0.000000 0.000000 0.000000 10.000000 
R_front_hand 0.000000 0.000000 0.000000 0.000000 0.000000 0.000000 10.000000 
R_weapon_bone 0.000000 0.000000 0.000000 0.000000 0.000000 0.000000 10.000000 
R_front_hand01_01 0.000000 0.000000 0.000000 0.000000 0.000000 0.000000 10.000000 
R_front_hand02_01 0.000000 0.000000 0.000000 0.000000 0.000000 0.000000 10.000000 
R_front_hand03_01 0.000000 0.000000 0.000000 0.000000 0.000000 0.000000 10.000000 
R_front_hand01_02 0.000000 0.000000 0.000000 0.000000 0.000000 0.000000 10.000000 
R_front_hand02_02 0.000000 0.000000 0.000000 0.000000 0.000000 0.000000 10.000000 
R_front_hand03_02 0.000000 0.000000 0.000000 0.000000 0.000000 0.000000 10.000000 
null_rope01_connect 0.000000 0.000000 0.000000 0.000000 0.000000 0.000000 10.000000 
Rope1_Seg01 0.000000 0.000000 0.000000 0.000000 0.000000 0.000000 10.000000 
Rope1_Seg02 0.000000 0.000000 0.000000 0.000000 0.000000 0.000000 10.000000 
Rope1_Seg03 0.000000 0.000000 0.000000 0.000000 0.000000 0.000000 10.000000 
Rope1_Seg04 0.000000 0.000000 0.000000 0.000000 0.000000 0.000000 10.000000 
Rope1_Seg05 0.000000 0.000000 0.000000 0.000000 0.000000 0.000000 10.000000 
Rope1_Seg06 0.000000 0.000000 0.000000 0.000000 0.000000 0.000000 10.000000 
Rope1_Seg07 0.000000 0.000000 0.000000 0.000000 0.000000 0.000000 10.000000 
Rope1_Seg09 0.000000 0.000000 0.000000 0.000000 0.000000 0.000000 10.000000 
L_mid_hand01 0.000000 0.000000 0.000000 0.000000 0.000000 0.000000 10.000000 
L_mid_hand02 0.000000 0.000000 0.000000 0.000000 0.000000 0.000000 10.000000 
L_mid_hand03 0.000000 0.000000 0.000000 0.000000 0.000000 0.000000 10.000000 
null_rope02_connect 0.000000 0.000000 0.000000 0.000000 0.000000 0.000000 10.000000 
Rope2_Seg01 0.000000 0.000000 0.000000 0.000000 0.000000 0.000000 10.000000 
Rope2_Seg02 0.000000 0.000000 0.000000 0.000000 0.000000 0.000000 10.000000 
Rope2_Seg03 0.000000 0.000000 0.000000 0.000000 0.000000 0.000000 10.000000 
Rope2_Seg04 0.000000 0.000000 0.000000 0.000000 0.000000 0.000000 10.000000 
Rope2_Seg05 0.000000 0.000000 0.000000 0.000000 0.000000 0.000000 10.000000 
Rope2_Seg06 0.000000 0.000000 0.000000 0.000000 0.000000 0.000000 10.000000 
Rope2_Seg07 0.000000 0.000000 0.000000 0.000000 0.000000 0.000000 10.000000 
Rope2_Seg09 0.000000 0.000000 0.000000 0.000000 0.000000 0.000000 10.000000 
R_mid_hand01 0.000000 0.000000 0.000000 0.000000 0.000000 0.000000 10.000000 
R_mid_hand02 0.000000 0.000000 0.000000 0.000000 0.000000 0.000000 10.000000 
R_mid_hand03 0.000000 0.000000 0.000000 0.000000 0.000000 0.000000 10.000000 
spine02 0.000000 0.000000 0.000000 0.000000 0.000000 0.000000 10.000000 
spine03 0.000000 0.000000 0.000000 0.000000 0.000000 0.000000 10.000000 
pelvis 0.000000 0.000000 0.000000 0.000000 0.000000 0.000000 10.000000 
null_rope03_connect 0.000000 0.000000 0.000000 0.000000 0.000000 0.000000 10.000000 
null_rope04_connect 0.000000 0.000000 0.000000 0.000000 0.000000 0.000000 10.000000 
Rope3_Seg01 0.000000 0.000000 0.000000 0.000000 0.000000 0.000000 10.000000 
Rope3_Seg02 0.000000 0.000000 0.000000 0.000000 0.000000 0.000000 10.000000 
Rope3_Seg03 0.000000 0.000000 0.000000 0.000000 0.000000 0.000000 10.000000 
Rope3_Seg04 0.000000 0.000000 0.000000 0.000000 0.000000 0.000000 10.000000 
Rope3_Seg05 0.000000 0.000000 0.000000 0.000000 0.000000 0.000000 10.000000 
Rope3_Seg06 0.000000 0.000000 0.000000 0.000000 0.000000 0.000000 10.000000 
Rope3_Seg07 0.000000 0.000000 0.000000 0.000000 0.000000 0.000000 10.000000 
Rope3_Seg08 0.000000 0.000000 0.000000 0.000000 0.000000 0.000000 10.000000 
Rope3_Seg09 0.000000 0.000000 0.000000 0.000000 0.000000 0.000000 10.000000 
R_rear_hand01 0.000000 0.000000 0.000000 0.000000 0.000000 0.000000 10.000000 
R_rear_hand02 0.000000 0.000000 0.000000 0.000000 0.000000 0.000000 10.000000 
R_rear_hand03 0.000000 0.000000 0.000000 0.000000 0.000000 0.000000 10.000000 
Rope4_Seg01 0.000000 0.000000 0.000000 0.000000 0.000000 0.000000 10.000000 
Rope4_Seg02 0.000000 0.000000 0.000000 0.000000 0.000000 0.000000 10.000000 
Rope4_Seg03 0.000000 0.000000 0.000000 0.000000 0.000000 0.000000 10.000000 
Rope4_Seg04 0.000000 0.000000 0.000000 0.000000 0.000000 0.000000 10.000000 
Rope4_Seg05 0.000000 0.000000 0.000000 0.000000 0.000000 0.000000 10.000000 
Rope4_Seg06 0.000000 0.000000 0.000000 0.000000 0.000000 0.000000 10.000000 
Rope4_Seg07 0.000000 0.000000 0.000000 0.000000 0.000000 0.000000 10.000000 
Rope4_Seg08 0.000000 0.000000 0.000000 0.000000 0.000000 0.000000 10.000000 
Rope4_Seg09 0.000000 0.000000 0.000000 0.000000 0.000000 0.000000 10.000000 
L_rear_hand01 0.000000 0.000000 0.000000 0.000000 0.000000 0.000000 10.000000 
L_rear_hand02 0.000000 0.000000 0.000000 0.000000 0.000000 0.000000 10.000000 
L_rear_hand03 0.000000 0.000000 0.000000 0.000000 0.000000 0.000000 10.000000 
#Beginning of Data. Separated by tabs
#Fr	Tx	Ty	Tz	Rx	Ry	Rz	SF
[MASTER]
36 0.000003 -0.000007 -4919.611816 0.001660 0.001660 0.001660 4919.611816
37 0.000003 -0.000005 -4876.030273 0.001660 0.001660 0.001660 4876.030273
[root]
36 -16.502304 9.282562 1448.359497 -91.728889 -11.584497 -89.471619 1448.483276
37 -16.502304 9.302955 1448.349609 -91.728889 -11.584497 -89.471619 1448.473511
[chest]
36 -84.512650 -34.090519 0.000000 -2.170494 -0.006436 168.239609 91.129311
37 -84.512650 -34.090519 0.000000 -2.182605 0.125432 167.127579 91.129311
[L_mid_tent01]
36 27.299206 22.178892 -249.918686 -20.661392 12.026043 12.983022 252.381653
37 27.299204 22.178909 -249.918686 -21.107271 10.019524 9.286989 252.381668
[R_mid_tent01]
36 23.228794 24.509907 226.238495 -165.192200 -17.956036 24.056787 228.744751
37 23.228794 24.509907 226.238495 -164.293030 -15.621869 21.006611 228.744751
[spine01]
36 -0.361383 -0.195265 0.000000 0.001947 0.001312 22.051847 0.410763
37 -0.361383 -0.195265 0.000000 0.001952 0.001303 22.571066 0.410763
[Bip01_Neck]
36 165.484543 71.581718 0.000119 176.643677 -1.657967 43.431911 180.302734
37 165.484543 71.581718 0.000119 176.643677 -1.657967 43.431911 180.302734
[L_humerus]
36 -13.983130 -135.272980 -120.471481 -5.480129 68.873367 84.573456 181.680161
37 -13.983130 -135.272980 -120.471481 -6.589123 65.515938 83.324196 181.680161
[R_humerus]
36 -13.983309 -135.273102 125.287651 27.897165 -69.888802 67.752319 184.909012
37 -13.983309 -135.273102 125.287651 26.270138 -66.383919 69.426422 184.909012
[weapon_bone]
36 235.964890 -300.705902 0.000000 0.000000 -89.951546 -128.212341 382.234833
37 235.964890 -300.705902 0.000000 0.000000 -89.951546 -128.212341 382.234833
[Bip01_Head]
36 213.444199 185.715332 11.776938 4.962490 2.797846 -43.898743 283.173615
37 213.444199 185.715332 11.776935 4.962490 2.797846 -43.898743 283.173615
[eye_left_bone]
36 -24.626970 125.451866 -64.772606 0.000000 -90.000000 -99.840431 143.318359
37 -24.626970 125.451866 -64.772606 0.000000 -90.000000 -99.840431 143.318359
[eye_right_bone]
36 -24.626970 125.451866 64.327362 0.000000 -89.965736 80.156380 143.117676
37 -24.626970 125.451866 64.327362 0.000000 -89.965736 80.156380 143.117676
[L_forearm]
36 322.776093 0.000000 -0.000119 0.000396 -0.002314 -109.419975 322.776093
37 322.776093 0.000000 -0.000119 0.000413 -0.002311 -110.260017 322.776093
[L_front_hand]
36 241.149185 -0.042021 -3.300071 -178.667953 -1.835447 -27.422350 241.171753
37 241.149185 -0.042021 -3.300071 -178.667953 -1.835447 -27.422350 241.171753
[L_weapon_bone]
36 156.183838 0.000000 0.000000 0.000014 0.000007 0.000001 156.183838
37 156.183838 0.000000 0.000000 0.000014 0.000007 0.000001 156.183838
[L_front_hand01_01]
36 86.095154 20.947098 -0.655860 -0.366594 -0.477154 75.385574 88.609184
37 86.095154 20.947098 -0.655860 -0.366594 -0.477154 75.385574 88.609184
[L_front_hand02_01]
36 86.935165 -11.437475 24.513514 154.399796 -59.883835 -61.369587 91.046425
37 86.935165 -11.437475 24.513514 154.399796 -59.883835 -61.369587 91.046425
[L_front_hand03_01]
36 86.637497 -14.123976 -20.424902 -153.913849 58.118122 -62.702866 90.126129
37 86.637497 -14.123976 -20.424902 -153.913849 58.118122 -62.702866 90.126129
[L_front_hand01_02]
36 71.020905 -0.000179 0.000030 0.000334 -0.002323 -106.379684 71.020905
37 71.020905 -0.000179 0.000030 0.000334 -0.002323 -106.379684 71.020905
[L_front_hand02_02]
36 71.020927 -0.000119 0.000060 0.000334 -0.002323 -106.379684 71.020927
37 71.020927 -0.000119 0.000060 0.000334 -0.002323 -106.379684 71.020927
[L_front_hand03_02]
36 71.020905 -0.000060 0.000060 0.000334 -0.002323 -106.379684 71.020905
37 71.020905 -0.000060 0.000060 0.000334 -0.002323 -106.379684 71.020905
[R_forearm]
36 322.776428 -0.000060 0.000030 0.202103 0.065158 -108.062805 322.776428
37 322.776428 -0.000060 0.000030 0.201615 0.066650 -108.909950 322.776428
[R_front_hand]
36 238.847015 -0.006795 2.210259 -2.635298 -10.645461 -26.312506 238.857239
37 238.847015 -0.006795 2.210259 -2.635298 -10.645461 -26.312506 238.857239
[R_weapon_bone]
36 155.664093 0.002503 -0.000030 0.003487 0.001180 -90.988930 155.664078
37 155.664093 0.002503 -0.000030 0.003487 0.001180 -90.988930 155.664078
[R_front_hand01_01]
36 87.624611 14.231146 22.918642 -154.633499 -59.950619 61.746044 91.683487
37 87.624611 14.231146 22.918642 -154.633514 -59.950634 61.746063 91.683487
[R_front_hand02_01]
36 89.356956 14.367283 -19.491137 154.602661 58.302849 63.744389 92.579636
37 89.356956 14.367283 -19.491137 154.602661 58.302849 63.744389 92.579636
[R_front_hand03_01]
36 87.286232 -22.307278 -0.143439 0.162155 -0.423168 -75.767921 90.091743
37 87.286232 -22.307278 -0.143439 0.162155 -0.423168 -75.767921 90.091743
[R_front_hand01_02]
36 71.020905 0.000060 0.000119 0.002323 -0.000334 106.381714 71.020905
37 71.020905 0.000060 0.000119 0.002323 -0.000334 106.381714 71.020905
[R_front_hand02_02]
36 71.020844 -0.000030 -0.000119 0.002323 -0.000334 106.381714 71.020836
37 71.020844 -0.000030 -0.000119 0.002323 -0.000334 106.381714 71.020836
[R_front_hand03_02]
36 71.020905 0.000000 0.000030 0.002323 -0.000334 106.381714 71.020905
37 71.020905 0.000000 0.000030 0.002323 -0.000334 106.381714 71.020905
[null_rope01_connect]
36 328.732483 0.000000 -0.000238 -154.483337 -64.791321 -118.914307 328.732483
37 328.732483 0.000000 -0.000238 -155.437790 -65.287140 -113.942558 328.732483
[Rope1_Seg01]
36 0.000068 -0.000040 0.000274 51.462738 0.539364 -118.579506 0.000285
37 0.000070 -0.000040 0.000282 46.261055 5.056264 -121.152733 0.000293
[Rope1_Seg02]
36 139.999863 -0.000179 0.000000 7.510426 3.233540 1.820493 139.999863
37 139.999863 -0.000179 0.000000 7.948850 2.572469 3.622386 139.999863
[Rope1_Seg03]
36 139.999924 0.000060 -0.000060 6.132625 3.184015 1.163215 139.999924
37 139.999924 0.000060 -0.000060 8.038893 2.871191 3.283635 139.999924
[Rope1_Seg04]
36 139.999924 -0.000060 -0.000119 6.202794 3.732789 0.991929 139.999924
37 139.999924 -0.000060 -0.000119 8.975351 3.742939 3.179652 139.999924
[Rope1_Seg05]
36 139.999832 0.000119 -0.000060 5.795742 3.547428 1.187048 139.999832
37 139.999832 0.000119 -0.000060 5.767590 3.603575 1.060185 139.999832
[Rope1_Seg06]
36 139.999954 0.000119 -0.000060 2.650407 1.791851 0.458717 139.999954
37 139.999954 0.000119 -0.000060 2.304723 1.744090 0.190112 139.999954
[Rope1_Seg07]
36 139.999985 0.000060 0.000000 1.467386 1.087526 0.178815 139.999985
37 139.999985 0.000060 0.000000 1.479796 1.097368 0.181534 139.999985
[Rope1_Seg09]
36 121.602913 0.000119 -0.000089 -89.793175 -1.359789 0.847147 121.602913
37 121.602913 0.000119 -0.000089 -89.793175 -1.359789 0.847147 121.602913
[L_mid_hand01]
36 103.859421 1.038730 8.195221 130.544373 -67.584534 -38.866943 104.187431
37 103.859421 1.038730 8.195221 130.544373 -67.584534 -38.866943 104.187431
[L_mid_hand02]
36 105.572853 -4.139662 -10.864139 -168.923172 43.409309 -73.498886 106.211075
37 105.572853 -4.139662 -10.864139 -168.923172 43.409309 -73.498886 106.211075
[L_mid_hand03]
36 104.641464 17.579376 -3.913581 -6.012627 17.808174 74.893669 106.179977
37 104.641464 17.579376 -3.913581 -6.012627 17.808174 74.893669 106.179977
[null_rope02_connect]
36 328.732849 0.000179 -0.000119 -140.208786 68.099197 -35.150627 328.732849
37 328.732849 0.000179 -0.000119 -142.766159 69.255089 -40.963779 328.732849
[Rope2_Seg01]
36 0.000095 0.000113 0.000000 39.608299 2.484294 -36.509956 0.000147
37 0.000100 0.000113 0.000000 44.125389 6.171346 -33.300583 0.000151
[Rope2_Seg02]
36 139.999741 -0.000060 -0.000119 -24.473648 -5.595346 -8.523096 139.999756
37 139.999741 -0.000060 -0.000119 -21.994404 -7.689313 -7.721446 139.999756
[Rope2_Seg03]
36 140.000107 0.000030 0.000000 -8.432236 0.761999 -4.697601 140.000107
37 140.000107 0.000030 0.000000 -12.172340 -1.735302 -5.730343 140.000107
[Rope2_Seg04]
36 139.999802 0.000000 -0.000060 -8.359620 0.591494 -5.170817 139.999802
37 139.999802 0.000000 -0.000060 -9.642812 -0.570623 -5.367193 139.999802
[Rope2_Seg05]
36 139.999985 -0.000060 0.000119 -27.754314 -2.534817 -22.384945 139.999985
37 139.999985 -0.000060 0.000119 -27.837219 -2.708806 -21.835304 139.999985
[Rope2_Seg06]
36 139.999893 -0.000030 -0.000119 -11.784030 6.377331 -17.393167 139.999893
37 139.999893 -0.000030 -0.000119 -12.322556 6.508993 -17.860237 139.999893
[Rope2_Seg07]
36 139.999893 0.000060 -0.000060 -2.792274 4.144829 -6.513500 139.999893
37 139.999893 0.000060 -0.000060 -2.906990 4.218870 -6.678522 139.999893
[Rope2_Seg09]
36 121.338966 0.000089 -0.000060 33.793236 -1.359788 -0.847141 121.338966
37 121.338966 0.000089 -0.000060 33.793236 -1.359788 -0.847141 121.338966
[R_mid_hand01]
36 104.680779 11.144459 -10.335981 -16.212063 45.237247 70.462852 105.778534
37 104.680779 11.144459 -10.335981 -16.212063 45.237247 70.462852 105.778534
[R_mid_hand02]
36 104.070427 2.443552 8.231699 49.067368 -67.749771 39.286453 104.424065
37 104.070427 2.443552 8.231699 49.067371 -67.749794 39.286461 104.424065
[R_mid_hand03]
36 106.028137 -11.221827 -5.996406 -177.101105 15.551026 -76.585571 106.788818
37 106.028137 -11.221827 -5.996406 -177.101105 15.551026 -76.585571 106.788818
[spine02]
36 129.756927 0.001550 0.000119 0.360061 -4.044797 -12.915058 129.756927
37 129.756927 0.001550 0.000119 0.442018 -4.035916 -14.123893 129.756927
[spine03]
36 78.614037 0.082030 -4.898996 1.896495 3.831288 16.473045 78.766571
37 78.614037 0.081969 -4.898998 1.944723 3.805210 17.229614 78.766571
[pelvis]
36 169.435242 0.051022 0.000000 -0.060465 -0.180225 14.087930 169.435257
37 169.435242 0.051022 0.000000 -0.062860 -0.179404 15.614121 169.435257
[null_rope03_connect]
36 -1.257226 -2.466202 137.391083 156.329987 -89.381348 -94.430771 137.418976
37 -1.257226 -2.466202 137.391083 0.000000 -89.456078 60.307587 137.418976
[null_rope04_connect]
36 -1.259640 -2.480268 -137.844437 156.329987 -89.381348 -94.430771 137.872513
37 -1.259640 -2.480268 -137.844437 0.000000 -89.456078 60.307587 137.872513
[Rope3_Seg01]
36 -0.000029 -0.000004 0.000274 17.991318 23.114922 -78.389481 0.000275
37 -0.000029 -0.000003 0.000282 17.978096 23.061340 -78.417122 0.000283
[Rope3_Seg02]
36 139.999924 -0.000119 0.000060 -0.079534 0.617467 3.295559 139.999924
37 139.999924 -0.000119 0.000060 -0.076707 0.629757 3.295568 139.999924
[Rope3_Seg03]
36 139.999924 -0.000119 0.000119 -0.238189 0.837421 4.427535 139.999924
37 139.999924 -0.000119 0.000119 -0.235355 0.847207 4.425064 139.999924
[Rope3_Seg04]
36 139.999924 0.000119 0.000000 -1.033718 1.733116 9.285671 139.999924
37 139.999924 0.000119 0.000000 -1.030141 1.745306 9.293072 139.999924
[Rope3_Seg05]
36 139.999924 -0.000238 0.000060 1.153378 -1.224825 -7.132862 139.999924
37 139.999924 -0.000238 0.000060 1.152757 -1.217571 -7.117910 139.999924
[Rope3_Seg06]
36 139.999893 -0.000119 -0.000060 1.817271 -3.668738 -19.790936 139.999893
37 139.999893 -0.000119 -0.000060 1.817271 -3.668738 -19.790936 139.999893
[Rope3_Seg07]
36 139.999771 0.000060 -0.000119 0.075086 -2.256620 -10.759729 139.999771
37 139.999771 0.000060 -0.000119 0.075152 -2.256618 -10.763043 139.999771
[Rope3_Seg08]
36 139.999985 -0.000060 0.000000 -0.124503 -1.262937 -6.073487 139.999985
37 139.999985 -0.000060 0.000000 -0.124503 -1.262937 -6.073487 139.999985
[Rope3_Seg09]
36 90.185997 -0.000179 -0.000060 89.793228 -1.359877 -0.847183 90.185997
37 90.185997 -0.000179 -0.000060 89.793228 -1.359877 -0.847183 90.185997
[R_rear_hand01]
36 103.366196 -6.073594 -10.757982 -177.714203 24.565960 -73.910950 104.101845
37 103.366196 -6.073594 -10.757982 -177.714203 24.565960 -73.910950 104.101845
[R_rear_hand02]
36 100.509819 12.039542 -7.992327 -12.874829 36.868488 72.167213 101.543350
37 100.509819 12.039542 -7.992327 -12.874829 36.868488 72.167213 101.543350
[R_rear_hand03]
36 101.539970 5.215704 5.435467 71.484581 -71.816643 21.513824 101.819031
37 101.539970 5.215704 5.435467 71.484619 -71.816643 21.513803 101.819031
[Rope4_Seg01]
36 0.000000 0.000000 0.000000 -101.699234 20.100874 -109.115456 0.000000
37 0.000000 0.000000 0.000000 -101.672401 19.972332 -109.120125 0.000000
[Rope4_Seg02]
36 139.999985 0.000060 0.000119 -0.327791 -5.772556 -0.046186 139.999985
37 139.999985 0.000060 0.000119 -0.334507 -5.777409 -0.011174 139.999985
[Rope4_Seg03]
36 139.999924 0.000000 -0.000238 0.053789 -8.289504 -1.266720 139.999924
37 139.999924 0.000000 -0.000238 0.051006 -8.299445 -1.226857 139.999924
[Rope4_Seg04]
36 139.999985 0.000000 0.000119 1.118925 -15.581257 -5.349864 139.999985
37 139.999985 0.000000 0.000119 1.121233 -15.591348 -5.290379 139.999985
[Rope4_Seg05]
36 139.999802 -0.000060 -0.000119 2.704980 12.083777 13.600363 139.999802
37 139.999802 -0.000060 -0.000119 2.704980 12.083777 13.600363 139.999802
[Rope4_Seg06]
36 139.999924 0.000000 0.000060 0.630654 11.067434 9.045832 139.999924
37 139.999924 0.000000 0.000060 0.631996 11.067324 9.042640 139.999924
[Rope4_Seg07]
36 139.999802 0.000000 0.000000 -0.176401 3.133596 3.079524 139.999802
37 139.999802 0.000000 0.000000 -0.176401 3.133596 3.079524 139.999802
[Rope4_Seg08]
36 139.999924 0.000000 0.000119 -1.703357 1.748957 1.731847 139.999924
37 139.999924 0.000000 0.000119 -1.703357 1.748957 1.731847 139.999924
[Rope4_Seg09]
36 90.185791 0.000060 0.000060 -135.617828 2.228885 0.850567 90.185791
37 90.185791 0.000060 0.000060 -135.617828 2.228885 0.850567 90.185791
[L_rear_hand01]
36 101.696655 -8.392275 -7.654577 -12.874829 -36.868488 107.832764 102.329041
37 101.696655 -8.392275 -7.654577 -12.874829 -36.868488 107.832764 102.329041
[L_rear_hand02]
36 102.726799 -1.568258 5.773216 71.484581 71.816643 158.486160 102.900848
37 102.726799 -1.568258 5.773216 71.484619 71.816643 158.486160 102.900848
[L_rear_hand03]
36 104.552910 9.721220 -10.420293 -177.714203 -24.565960 -106.089035 105.519653
37 104.552910 9.721220 -10.420293 -177.714203 -24.565960 -106.089035 105.519653
